<svg width="192" height="49" viewBox="0 0 192 49" fill="none" xmlns="http://www.w3.org/2000/svg">
<path d="M184.281 34.2678C182.98 34.2678 181.828 33.9798 180.825 33.4038C179.844 32.8065 179.076 32.0065 178.521 31.0038V40.7638H174.233V17.1798H177.977V20.0598C178.617 19.0785 179.428 18.3105 180.409 17.7558C181.391 17.1798 182.511 16.8918 183.769 16.8918C184.9 16.8918 185.935 17.1158 186.873 17.5638C187.833 18.0118 188.665 18.6412 189.369 19.4518C190.073 20.2412 190.617 21.1585 191.001 22.2038C191.407 23.2278 191.609 24.3372 191.609 25.5318C191.609 27.1532 191.289 28.6252 190.649 29.9478C190.031 31.2705 189.167 32.3265 188.057 33.1158C186.969 33.8838 185.711 34.2678 184.281 34.2678ZM182.841 30.6198C183.503 30.6198 184.1 30.4812 184.633 30.2038C185.167 29.9265 185.625 29.5532 186.009 29.0838C186.415 28.5932 186.713 28.0492 186.905 27.4518C187.119 26.8332 187.225 26.1932 187.225 25.5318C187.225 24.8278 187.108 24.1772 186.873 23.5798C186.66 22.9825 186.34 22.4598 185.913 22.0118C185.487 21.5425 184.985 21.1798 184.409 20.9238C183.855 20.6678 183.247 20.5398 182.585 20.5398C182.18 20.5398 181.764 20.6145 181.337 20.7638C180.932 20.8918 180.537 21.0838 180.153 21.3398C179.769 21.5958 179.428 21.8945 179.129 22.2358C178.852 22.5772 178.649 22.9505 178.521 23.3558V27.2918C178.777 27.9105 179.119 28.4758 179.545 28.9878C179.993 29.4998 180.505 29.9052 181.081 30.2038C181.657 30.4812 182.244 30.6198 182.841 30.6198Z" fill="#202020"/>
<path d="M164 34.2678C162.699 34.2678 161.547 33.9798 160.544 33.4038C159.563 32.8065 158.795 32.0065 158.24 31.0038V40.7638H153.952V17.1798H157.696V20.0598C158.336 19.0785 159.147 18.3105 160.128 17.7558C161.109 17.1798 162.229 16.8918 163.488 16.8918C164.619 16.8918 165.653 17.1158 166.592 17.5638C167.552 18.0118 168.384 18.6412 169.088 19.4518C169.792 20.2412 170.336 21.1585 170.72 22.2038C171.125 23.2278 171.328 24.3372 171.328 25.5318C171.328 27.1532 171.008 28.6252 170.368 29.9478C169.749 31.2705 168.885 32.3265 167.776 33.1158C166.688 33.8838 165.429 34.2678 164 34.2678ZM162.56 30.6198C163.221 30.6198 163.819 30.4812 164.352 30.2038C164.885 29.9265 165.344 29.5532 165.728 29.0838C166.133 28.5932 166.432 28.0492 166.624 27.4518C166.837 26.8332 166.944 26.1932 166.944 25.5318C166.944 24.8278 166.827 24.1772 166.592 23.5798C166.379 22.9825 166.059 22.4598 165.632 22.0118C165.205 21.5425 164.704 21.1798 164.128 20.9238C163.573 20.6678 162.965 20.5398 162.304 20.5398C161.899 20.5398 161.483 20.6145 161.056 20.7638C160.651 20.8918 160.256 21.0838 159.872 21.3398C159.488 21.5958 159.147 21.8945 158.848 22.2358C158.571 22.5772 158.368 22.9505 158.24 23.3558V27.2918C158.496 27.9105 158.837 28.4758 159.264 28.9878C159.712 29.4998 160.224 29.9052 160.8 30.2038C161.376 30.4812 161.963 30.6198 162.56 30.6198Z" fill="#202020"/>
<path d="M139.044 11.2279H143.524L151.876 33.9479H147.332L145.22 28.2839H137.284L135.204 33.9479H130.66L139.044 11.2279ZM144.42 25.1799L141.284 15.8039L138.02 25.1799H144.42Z" fill="#202020"/>
<path d="M131.499 20.8919C130.197 20.8919 129.035 21.1479 128.011 21.6599C126.987 22.1506 126.251 22.8653 125.803 23.8039V33.9479H121.515V17.1799H125.451V20.7639C126.048 19.6119 126.805 18.7053 127.723 18.0439C128.64 17.3826 129.611 17.0199 130.635 16.9559C130.869 16.9559 131.051 16.9559 131.179 16.9559C131.307 16.9559 131.413 16.9666 131.499 16.9879V20.8919Z" fill="#F5F4F4"/>
<path d="M110.135 34.2678C108.791 34.2678 107.575 34.0438 106.487 33.5958C105.399 33.1265 104.471 32.4972 103.703 31.7078C102.935 30.8972 102.337 29.9798 101.911 28.9558C101.505 27.9105 101.303 26.8118 101.303 25.6598C101.303 24.0598 101.655 22.5985 102.359 21.2758C103.084 19.9532 104.108 18.8972 105.431 18.1078C106.775 17.2972 108.353 16.8918 110.167 16.8918C112.001 16.8918 113.569 17.2972 114.871 18.1078C116.172 18.8972 117.164 19.9532 117.847 21.2758C118.551 22.5772 118.903 23.9852 118.903 25.4998C118.903 25.7558 118.892 26.0225 118.871 26.2998C118.849 26.5558 118.828 26.7692 118.807 26.9398H105.847C105.932 27.7932 106.177 28.5398 106.583 29.1798C107.009 29.8198 107.543 30.3105 108.183 30.6518C108.844 30.9718 109.548 31.1318 110.295 31.1318C111.148 31.1318 111.948 30.9292 112.695 30.5238C113.463 30.0972 113.985 29.5425 114.263 28.8598L117.943 29.8838C117.537 30.7372 116.951 31.4945 116.183 32.1558C115.436 32.8172 114.551 33.3398 113.527 33.7238C112.503 34.0865 111.372 34.2678 110.135 34.2678ZM105.751 24.2198H114.519C114.433 23.3665 114.188 22.6305 113.783 22.0118C113.399 21.3718 112.887 20.8812 112.247 20.5398C111.607 20.1772 110.892 19.9958 110.103 19.9958C109.335 19.9958 108.631 20.1772 107.991 20.5398C107.372 20.8812 106.86 21.3718 106.455 22.0118C106.071 22.6305 105.836 23.3665 105.751 24.2198Z" fill="#F5F4F4"/>
<path d="M98.6299 33.9479H94.3419V24.5399C94.3419 23.2386 94.0859 22.2679 93.5739 21.6279C93.0832 20.9879 92.4006 20.6679 91.5259 20.6679C91.0139 20.6679 90.4699 20.8172 89.8939 21.1159C89.3179 21.4146 88.7952 21.8306 88.3259 22.3639C87.8779 22.8759 87.5472 23.4732 87.3339 24.1559V33.9479H83.0459V10.5879H87.3339V20.2839C87.9526 19.2172 88.7952 18.3852 89.8619 17.7879C90.9286 17.1906 92.0912 16.8919 93.3499 16.8919C94.4379 16.8919 95.3232 17.0839 96.0059 17.4679C96.6886 17.8306 97.2219 18.3319 97.6059 18.9719C97.9899 19.5906 98.2566 20.2946 98.4059 21.0839C98.5552 21.8519 98.6299 22.6519 98.6299 23.4839V33.9479Z" fill="#F5F4F4"/>
<path d="M80.8126 33.0839C80.4499 33.2332 80.0126 33.4039 79.5006 33.5959C78.9886 33.7879 78.4339 33.9372 77.8366 34.0439C77.2606 34.1719 76.6739 34.2359 76.0766 34.2359C75.2873 34.2359 74.5619 34.0972 73.9006 33.8199C73.2393 33.5425 72.7059 33.1052 72.3006 32.5079C71.9166 31.8892 71.7246 31.0892 71.7246 30.1079V20.4759H69.5166V17.1799H71.7246V11.7399H76.0126V17.1799H79.5326V20.4759H76.0126V28.6679C76.0339 29.2439 76.1939 29.6599 76.4926 29.9159C76.7913 30.1719 77.1646 30.2999 77.6126 30.2999C78.0606 30.2999 78.4979 30.2252 78.9246 30.0759C79.3513 29.9265 79.6926 29.7985 79.9486 29.6919L80.8126 33.0839Z" fill="#F5F4F4"/>
<path d="M51.3936 28.9878C51.3936 27.8998 51.6922 26.9505 52.2896 26.1398C52.9082 25.3078 53.7616 24.6678 54.8496 24.2198C55.9376 23.7718 57.1856 23.5478 58.5936 23.5478C59.2976 23.5478 60.0122 23.6012 60.7376 23.7078C61.4629 23.8145 62.0922 23.9852 62.6256 24.2198V23.3238C62.6256 22.2572 62.3056 21.4358 61.6656 20.8598C61.0469 20.2838 60.1189 19.9958 58.8816 19.9958C57.9642 19.9958 57.0896 20.1558 56.2576 20.4758C55.4256 20.7958 54.5509 21.2652 53.6336 21.8838L52.2576 19.0678C53.3669 18.3425 54.4976 17.7985 55.6496 17.4358C56.8229 17.0732 58.0496 16.8918 59.3296 16.8918C61.7189 16.8918 63.5749 17.4892 64.8976 18.6838C66.2416 19.8785 66.9136 21.5852 66.9136 23.8038V29.1478C66.9136 29.5958 66.9882 29.9158 67.1376 30.1078C67.3082 30.2998 67.5749 30.4172 67.9376 30.4598V33.9478C67.5536 34.0118 67.2016 34.0652 66.8816 34.1078C66.5829 34.1505 66.3269 34.1718 66.1136 34.1718C65.2602 34.1718 64.6096 33.9798 64.1616 33.5958C63.7349 33.2118 63.4682 32.7425 63.3616 32.1878L63.2656 31.3238C62.5402 32.2625 61.6336 32.9878 60.5456 33.4998C59.4576 34.0118 58.3482 34.2678 57.2176 34.2678C56.1082 34.2678 55.1056 34.0438 54.2096 33.5958C53.3349 33.1265 52.6416 32.4972 52.1296 31.7078C51.6389 30.8972 51.3936 29.9905 51.3936 28.9878ZM61.8256 29.8518C62.0602 29.5958 62.2522 29.3398 62.4016 29.0838C62.5509 28.8278 62.6256 28.5932 62.6256 28.3798V26.6838C62.1136 26.4705 61.5589 26.3105 60.9616 26.2038C60.3642 26.0758 59.7989 26.0118 59.2656 26.0118C58.1562 26.0118 57.2389 26.2572 56.5136 26.7478C55.8096 27.2172 55.4576 27.8465 55.4576 28.6358C55.4576 29.0625 55.5749 29.4678 55.8096 29.8518C56.0442 30.2358 56.3856 30.5452 56.8336 30.7798C57.2816 31.0145 57.8149 31.1318 58.4336 31.1318C59.0736 31.1318 59.7029 31.0145 60.3216 30.7798C60.9402 30.5238 61.4416 30.2145 61.8256 29.8518Z" fill="#F5F4F4"/>
<path d="M41.166 34.2678C39.822 34.2678 38.606 34.0438 37.518 33.5958C36.43 33.1265 35.502 32.4972 34.734 31.7078C33.966 30.8972 33.3687 29.9798 32.942 28.9558C32.5367 27.9105 32.334 26.8118 32.334 25.6598C32.334 24.0598 32.686 22.5985 33.39 21.2758C34.1153 19.9532 35.1393 18.8972 36.462 18.1078C37.806 17.2972 39.3847 16.8918 41.198 16.8918C43.0327 16.8918 44.6007 17.2972 45.902 18.1078C47.2033 18.8972 48.1953 19.9532 48.878 21.2758C49.582 22.5772 49.934 23.9852 49.934 25.4998C49.934 25.7558 49.9233 26.0225 49.902 26.2998C49.8807 26.5558 49.8593 26.7692 49.838 26.9398H36.878C36.9633 27.7932 37.2087 28.5398 37.614 29.1798C38.0406 29.8198 38.574 30.3105 39.214 30.6518C39.8753 30.9718 40.5793 31.1318 41.326 31.1318C42.1793 31.1318 42.9793 30.9292 43.726 30.5238C44.494 30.0972 45.0167 29.5425 45.294 28.8598L48.974 29.8838C48.5687 30.7372 47.982 31.4945 47.214 32.1558C46.4673 32.8172 45.582 33.3398 44.558 33.7238C43.534 34.0865 42.4033 34.2678 41.166 34.2678ZM36.782 24.2198H45.55C45.4647 23.3665 45.2193 22.6305 44.814 22.0118C44.43 21.3718 43.918 20.8812 43.278 20.5398C42.638 20.1772 41.9233 19.9958 41.134 19.9958C40.366 19.9958 39.662 20.1772 39.022 20.5398C38.4033 20.8812 37.8913 21.3718 37.486 22.0118C37.102 22.6305 36.8673 23.3665 36.782 24.2198Z" fill="#F5F4F4"/>
<path d="M10.144 11.2919H14.24L16.832 18.8119L19.456 11.2919H23.52L19.616 21.6279L22.496 28.8599L28.928 11.2279H33.728L24.64 33.9479H20.832L16.832 24.4119L12.864 33.9479H9.056L0 11.2279H4.736L11.2 28.8599L14.016 21.6279L10.144 11.2919Z" fill="#F5F4F4"/>
</svg>
